<svg width="30" height="35" viewBox="0 0 30 35" fill="none" xmlns="http://www.w3.org/2000/svg">
<path d="M5.86957 34H26.5652C27.9099 34 29 32.8635 29 31.4615V23.8462H5.86957C3.18018 23.8462 1 26.1192 1 28.9231C1 31.727 3.18018 34 5.86957 34Z" fill="#FAFAFA"/>
<path d="M29 23.8462H5.86957C3.18018 23.8462 1 26.1192 1 28.9231M29 23.8462V31.4615C29 32.8635 27.9099 34 26.5652 34H5.86957C3.18018 34 1 31.727 1 28.9231M29 23.8462V3.53846C29 2.13651 27.9099 1 26.5652 1H8.91304M1 28.9231V6.07692C1 3.27302 3.18018 1 5.86957 1H8.91304M15.0946 8.61539H21.7717M15.0946 16.2308H21.7717M8.91304 23.6875V1" stroke="black" stroke-width="2" stroke-linecap="round" stroke-linejoin="round"/>
</svg>
