<svg width="36" height="42" viewBox="0 0 36 42" fill="none" xmlns="http://www.w3.org/2000/svg">
<path d="M0 7C0 3.13401 3.33471 0 7.44828 0H28.5517C32.6653 0 36 3.13401 36 7V35C36 38.866 32.6653 42 28.5517 42H7.44828C3.33471 42 0 38.866 0 35V7Z" fill="#00BE00"/>
<path d="M8.40983 33.0571V30.5168C8.40983 30.055 8.63127 29.824 9.07416 29.824H14.1674C14.6102 29.824 14.8317 30.055 14.8317 30.5168V33.0571C14.8317 33.519 14.6102 33.7499 14.1674 33.7499H9.07416C8.63127 33.7499 8.40983 33.519 8.40983 33.0571Z" fill="#00BE00"/>
<path d="M18.3748 9.50172L31.4701 9.50175M18.3748 9.50172V26.8219M18.3748 9.50172H4.64529M31.8828 26.8219C31.8828 26.8219 31.8828 33.9809 31.8828 35.1356C31.8828 36.2902 31.6614 36.983 30.5542 36.983C29.4469 36.983 7.7455 36.983 6.1954 36.983C4.64529 36.983 4.64529 35.1356 4.64529 35.1356V9.50172M31.8828 26.8219V9.50172C31.8828 9.50172 31.8828 7.88517 31.8828 6.49956C31.8828 5.11395 31.2185 4.42114 30.5542 4.42114C29.8898 4.42114 7.74553 4.42114 6.41684 4.42114C5.08815 4.42114 4.6453 5.34488 4.64529 6.49956C4.64529 7.65424 4.64529 9.50172 4.64529 9.50172M31.8828 26.8219H18.3748M18.3748 26.8219L4.64526 26.8219M21.9179 30.5168C21.9179 30.9787 21.9179 32.5953 21.9179 33.0571C21.9179 33.519 22.1393 33.7499 22.5822 33.7499C23.0251 33.7499 27.2325 33.7499 27.6754 33.7499C28.1183 33.7499 28.3397 33.519 28.3397 33.0571C28.3397 32.5953 28.3397 30.9787 28.3397 30.5168C28.3397 30.055 28.1183 29.824 27.6754 29.824C27.2325 29.824 23.0251 29.824 22.5822 29.824C22.1393 29.824 21.9179 30.055 21.9179 30.5168ZM8.40983 30.5168V33.0571C8.40983 33.519 8.63127 33.7499 9.07416 33.7499H14.1674C14.6102 33.7499 14.8317 33.519 14.8317 33.0571V30.5168C14.8317 30.055 14.6102 29.824 14.1674 29.824H9.07416C8.63127 29.824 8.40983 30.055 8.40983 30.5168Z" stroke="#FFFCFC" stroke-width="2.5"/>
<path d="M11.0379 37.134C11.1651 37.134 11.1754 38.3601 11.0379 38.769C10.8544 39.3143 10.0099 39.7238 9.04692 39.7238C7.94642 39.7238 7.18611 39.3143 6.98728 38.769C6.83816 38.3601 6.76308 37.2851 6.98728 37.134" stroke="#FFFCFC" stroke-width="2.5" stroke-linecap="round"/>
<path d="M30.0222 37.134C30.1495 37.134 30.1598 38.3601 30.0222 38.769C29.8388 39.3143 28.9942 39.7238 28.0313 39.7238C26.9308 39.7238 26.1705 39.3143 25.9717 38.769C25.8225 38.3601 25.7475 37.2851 25.9717 37.134" stroke="#FFFCFC" stroke-width="2.5" stroke-linecap="round"/>
</svg>
