<svg width="170" height="80" viewBox="0 0 170 80" fill="none" xmlns="http://www.w3.org/2000/svg">
<rect width="170" height="80" rx="6" fill="#DD5E5E" fill-opacity="0.35"/>
<path d="M67.4892 9.11174L67.4891 9.11185C65.569 11.3222 64.5 14.3063 64.5 17.4057C64.5 20.505 65.569 23.4892 67.4891 25.6995L67.4891 25.6995L84.2015 44.9355C84.2965 45.0448 84.4342 45.1076 84.579 45.1076C84.7237 45.1076 84.8614 45.0448 84.9564 44.9355L101.666 25.7028C102.644 24.6151 103.42 23.3182 103.954 21.8892C104.488 20.4587 104.768 18.9222 104.78 17.3689C104.792 15.8156 104.535 14.2739 104.022 12.8332C103.51 11.3926 102.752 10.0795 101.79 8.97214C100.828 7.86466 99.6795 6.98437 98.4101 6.38667C97.1404 5.78881 95.7768 5.48668 94.3997 5.50045C93.0226 5.51422 91.6641 5.84357 90.4039 6.46653C89.1454 7.0887 88.012 7.99033 87.0674 9.11491L84.579 11.9763L82.0877 9.11174C82.0877 9.11171 82.0876 9.11167 82.0876 9.11164C80.165 6.89981 77.5415 5.64086 74.7884 5.64086C72.0353 5.64086 69.4117 6.89985 67.4892 9.11174Z" fill="#CC0404" stroke="#CC0404" stroke-linejoin="round"/>
<path d="M21.352 51.864H23.368V61.272C23.368 61.816 23.36 62.416 23.344 63.072C23.328 63.712 23.304 64.312 23.272 64.872C23.24 65.416 23.216 65.808 23.2 66.048H23.296L32.728 51.864H35.128V69H33.112V59.688C33.112 59.112 33.12 58.488 33.136 57.816C33.168 57.128 33.2 56.504 33.232 55.944C33.264 55.384 33.288 54.984 33.304 54.744H33.208L23.752 69H21.352V51.864ZM42.8459 55.896C44.3179 55.896 45.4859 56.192 46.3499 56.784C47.2299 57.376 47.6699 58.208 47.6699 59.28C47.6699 60.064 47.4459 60.688 46.9979 61.152C46.5659 61.6 45.9819 61.928 45.2459 62.136V62.232C45.7579 62.376 46.2299 62.576 46.6619 62.832C47.0939 63.088 47.4379 63.432 47.6939 63.864C47.9659 64.28 48.1019 64.808 48.1019 65.448C48.1019 66.52 47.6539 67.424 46.7579 68.16C45.8779 68.88 44.4939 69.24 42.6059 69.24C41.6779 69.24 40.8379 69.168 40.0859 69.024C39.3339 68.88 38.7099 68.672 38.2139 68.4V66.504C38.7579 66.76 39.3979 66.992 40.1339 67.2C40.8859 67.408 41.7019 67.512 42.5819 67.512C43.5419 67.512 44.3499 67.352 45.0059 67.032C45.6779 66.696 46.0139 66.128 46.0139 65.328C46.0139 63.888 44.7899 63.168 42.3419 63.168H40.6139V61.44H42.0059C43.1099 61.44 43.9899 61.296 44.6459 61.008C45.3179 60.704 45.6539 60.192 45.6539 59.472C45.6539 58.864 45.3979 58.408 44.8859 58.104C44.3899 57.8 43.6699 57.648 42.7259 57.648C42.0219 57.648 41.3979 57.72 40.8539 57.864C40.3259 57.992 39.7419 58.192 39.1019 58.464L38.3579 56.784C39.7019 56.192 41.1979 55.896 42.8459 55.896ZM50.5555 61.272C50.5555 58.456 50.9795 56.264 51.8275 54.696C52.6755 53.128 54.0435 52.136 55.9315 51.72C56.9715 51.496 57.9875 51.296 58.9795 51.12C59.9715 50.944 60.8995 50.784 61.7635 50.64L62.1235 52.488C61.5635 52.584 60.9315 52.688 60.2275 52.8C59.5235 52.912 58.8275 53.032 58.1395 53.16C57.4515 53.288 56.8595 53.4 56.3635 53.496C55.3235 53.72 54.4995 54.264 53.8915 55.128C53.2835 55.992 52.9395 57.32 52.8595 59.112H53.0035C53.2275 58.808 53.5315 58.496 53.9155 58.176C54.3155 57.856 54.7875 57.584 55.3315 57.36C55.8915 57.136 56.5235 57.024 57.2275 57.024C58.8915 57.024 60.1475 57.56 60.9955 58.632C61.8435 59.704 62.2675 61.096 62.2675 62.808C62.2675 64.248 62.0195 65.448 61.5235 66.408C61.0275 67.352 60.3315 68.064 59.4355 68.544C58.5555 69.008 57.5395 69.24 56.3875 69.24C54.6115 69.24 53.1955 68.56 52.1395 67.2C51.0835 65.84 50.5555 63.864 50.5555 61.272ZM56.5555 67.488C57.5955 67.488 58.4355 67.152 59.0755 66.48C59.7155 65.808 60.0355 64.656 60.0355 63.024C60.0355 61.712 59.7875 60.68 59.2915 59.928C58.8115 59.16 58.0115 58.776 56.8915 58.776C56.1715 58.776 55.5235 58.936 54.9475 59.256C54.3875 59.56 53.9075 59.912 53.5075 60.312C53.1235 60.712 52.8595 61.048 52.7155 61.32C52.7155 62.104 52.7715 62.864 52.8835 63.6C52.9955 64.336 53.1875 65 53.4595 65.592C53.7475 66.168 54.1395 66.632 54.6355 66.984C55.1475 67.32 55.7875 67.488 56.5555 67.488ZM71.7147 55.896C73.2987 55.896 74.5707 56.448 75.5307 57.552C76.5067 58.656 76.9947 60.32 76.9947 62.544C76.9947 64.736 76.5067 66.4 75.5307 67.536C74.5707 68.672 73.2907 69.24 71.6907 69.24C70.6987 69.24 69.8747 69.056 69.2187 68.688C68.5787 68.32 68.0747 67.88 67.7067 67.368H67.5627C67.5787 67.64 67.6027 67.984 67.6347 68.4C67.6827 68.816 67.7067 69.176 67.7067 69.48V74.76H65.5947V56.136H67.3227L67.6107 57.888H67.7067C68.0907 57.328 68.5947 56.856 69.2187 56.472C69.8427 56.088 70.6747 55.896 71.7147 55.896ZM71.3307 57.672C70.0187 57.672 69.0907 58.04 68.5467 58.776C68.0027 59.512 67.7227 60.632 67.7067 62.136V62.544C67.7067 64.128 67.9627 65.352 68.4747 66.216C69.0027 67.064 69.9707 67.488 71.3787 67.488C72.1467 67.488 72.7867 67.28 73.2987 66.864C73.8107 66.432 74.1867 65.84 74.4267 65.088C74.6827 64.336 74.8107 63.48 74.8107 62.52C74.8107 61.048 74.5227 59.872 73.9467 58.992C73.3867 58.112 72.5147 57.672 71.3307 57.672ZM85.2323 55.92C86.8003 55.92 87.9603 56.264 88.7123 56.952C89.4643 57.64 89.8403 58.736 89.8403 60.24V69H88.3043L87.8963 67.176H87.8003C87.2403 67.88 86.6483 68.4 86.0243 68.736C85.4003 69.072 84.5523 69.24 83.4803 69.24C82.3123 69.24 81.3443 68.936 80.5763 68.328C79.8083 67.704 79.4243 66.736 79.4243 65.424C79.4243 64.144 79.9283 63.16 80.9363 62.472C81.9443 61.768 83.4963 61.384 85.5923 61.32L87.7763 61.248V60.48C87.7763 59.408 87.5443 58.664 87.0803 58.248C86.6163 57.832 85.9603 57.624 85.1123 57.624C84.4403 57.624 83.8003 57.728 83.1923 57.936C82.5843 58.128 82.0163 58.352 81.4883 58.608L80.8403 57.024C81.4003 56.72 82.0643 56.464 82.8323 56.256C83.6003 56.032 84.4003 55.92 85.2323 55.92ZM87.7523 62.712L85.8563 62.784C84.2563 62.848 83.1443 63.104 82.5203 63.552C81.9123 64 81.6083 64.632 81.6083 65.448C81.6083 66.168 81.8243 66.696 82.2563 67.032C82.7043 67.368 83.2723 67.536 83.9603 67.536C85.0323 67.536 85.9283 67.24 86.6483 66.648C87.3843 66.04 87.7523 65.112 87.7523 63.864V62.712ZM95.9254 56.136V61.488H102.909V56.136H105.021V69H102.909V63.264H95.9254V69H93.8134V56.136H95.9254ZM111.207 56.136V61.488H118.191V56.136H120.303V69H118.191V63.264H111.207V69H109.095V56.136H111.207ZM135.56 62.544C135.56 64.672 135.016 66.32 133.928 67.488C132.856 68.656 131.4 69.24 129.56 69.24C128.424 69.24 127.408 68.984 126.512 68.472C125.632 67.944 124.936 67.184 124.424 66.192C123.912 65.184 123.656 63.968 123.656 62.544C123.656 60.416 124.184 58.776 125.24 57.624C126.312 56.472 127.776 55.896 129.632 55.896C130.784 55.896 131.808 56.16 132.704 56.688C133.6 57.2 134.296 57.952 134.792 58.944C135.304 59.92 135.56 61.12 135.56 62.544ZM125.84 62.544C125.84 64.064 126.136 65.272 126.728 66.168C127.336 67.048 128.296 67.488 129.608 67.488C130.904 67.488 131.856 67.048 132.464 66.168C133.072 65.272 133.376 64.064 133.376 62.544C133.376 61.024 133.072 59.832 132.464 58.968C131.856 58.104 130.896 57.672 129.584 57.672C128.272 57.672 127.32 58.104 126.728 58.968C126.136 59.832 125.84 61.024 125.84 62.544ZM143.875 55.896C144.963 55.896 145.907 56.136 146.707 56.616C147.507 57.096 148.115 57.776 148.531 58.656C148.963 59.52 149.179 60.536 149.179 61.704V62.976H140.371C140.403 64.432 140.771 65.544 141.475 66.312C142.195 67.064 143.195 67.44 144.475 67.44C145.291 67.44 146.011 67.368 146.635 67.224C147.275 67.064 147.931 66.84 148.603 66.552V68.4C147.947 68.688 147.299 68.896 146.659 69.024C146.019 69.168 145.259 69.24 144.379 69.24C143.147 69.24 142.067 68.992 141.139 68.496C140.211 68 139.483 67.264 138.955 66.288C138.443 65.312 138.187 64.104 138.187 62.664C138.187 61.256 138.419 60.048 138.883 59.04C139.363 58.032 140.027 57.256 140.875 56.712C141.739 56.168 142.739 55.896 143.875 55.896ZM143.851 57.624C142.843 57.624 142.043 57.952 141.451 58.608C140.875 59.248 140.531 60.144 140.419 61.296H146.971C146.955 60.208 146.699 59.328 146.203 58.656C145.707 57.968 144.923 57.624 143.851 57.624Z" fill="#CC0404"/>
</svg>
