<svg width="34" height="34" viewBox="0 0 34 34" fill="none" xmlns="http://www.w3.org/2000/svg">
<circle cx="17" cy="17" r="16.25" fill="#E6E6E6" stroke="black" stroke-width="1.5"/>
<mask id="path-2-outside-1_126_44" maskUnits="userSpaceOnUse" x="11" y="9" width="12" height="17" fill="black">
<rect fill="white" x="11" y="9" width="12" height="17"/>
<path d="M16.2627 20.516C16.2627 19.8067 16.3577 19.2493 16.5477 18.844C16.7377 18.426 16.9784 18.0967 17.2697 17.856C17.5737 17.6153 17.8904 17.4 18.2197 17.21C18.5617 17.0073 18.8784 16.773 19.1697 16.507C19.4737 16.2283 19.7207 15.8547 19.9107 15.386C20.1007 14.9173 20.1957 14.2777 20.1957 13.467C20.1957 12.783 20.1007 12.251 19.9107 11.871C19.7207 11.491 19.3914 11.225 18.9227 11.073C18.4667 10.921 17.8207 10.845 16.9847 10.845C16.1487 10.845 15.4964 10.9273 15.0277 11.092C14.5717 11.2567 14.255 11.548 14.0777 11.966C13.9004 12.3713 13.818 12.9477 13.8307 13.695H12.4057C12.3804 12.6437 12.507 11.8203 12.7857 11.225C13.0644 10.617 13.5394 10.1863 14.2107 9.933C14.8947 9.667 15.8194 9.534 16.9847 9.534C18.15 9.534 19.0684 9.66067 19.7397 9.914C20.411 10.1547 20.8924 10.56 21.1837 11.13C21.475 11.7 21.6207 12.479 21.6207 13.467C21.6207 14.3917 21.5257 15.1453 21.3357 15.728C21.1457 16.298 20.8987 16.754 20.5947 17.096C20.3034 17.438 19.9867 17.723 19.6447 17.951C19.3154 18.1663 18.9987 18.3753 18.6947 18.578C18.4034 18.768 18.1627 19.015 17.9727 19.319C17.7827 19.6103 17.6877 20.0093 17.6877 20.516H16.2627ZM17.0037 25.266C16.4844 25.266 16.1234 25.1773 15.9207 25C15.7307 24.81 15.6357 24.468 15.6357 23.974C15.6357 23.4927 15.7307 23.1633 15.9207 22.986C16.1234 22.796 16.4844 22.701 17.0037 22.701C17.5357 22.701 17.8967 22.796 18.0867 22.986C18.2767 23.1633 18.3717 23.4927 18.3717 23.974C18.3717 24.468 18.2767 24.81 18.0867 25C17.8967 25.1773 17.5357 25.266 17.0037 25.266Z"/>
</mask>
<path d="M16.2627 20.516C16.2627 19.8067 16.3577 19.2493 16.5477 18.844C16.7377 18.426 16.9784 18.0967 17.2697 17.856C17.5737 17.6153 17.8904 17.4 18.2197 17.21C18.5617 17.0073 18.8784 16.773 19.1697 16.507C19.4737 16.2283 19.7207 15.8547 19.9107 15.386C20.1007 14.9173 20.1957 14.2777 20.1957 13.467C20.1957 12.783 20.1007 12.251 19.9107 11.871C19.7207 11.491 19.3914 11.225 18.9227 11.073C18.4667 10.921 17.8207 10.845 16.9847 10.845C16.1487 10.845 15.4964 10.9273 15.0277 11.092C14.5717 11.2567 14.255 11.548 14.0777 11.966C13.9004 12.3713 13.818 12.9477 13.8307 13.695H12.4057C12.3804 12.6437 12.507 11.8203 12.7857 11.225C13.0644 10.617 13.5394 10.1863 14.2107 9.933C14.8947 9.667 15.8194 9.534 16.9847 9.534C18.15 9.534 19.0684 9.66067 19.7397 9.914C20.411 10.1547 20.8924 10.56 21.1837 11.13C21.475 11.7 21.6207 12.479 21.6207 13.467C21.6207 14.3917 21.5257 15.1453 21.3357 15.728C21.1457 16.298 20.8987 16.754 20.5947 17.096C20.3034 17.438 19.9867 17.723 19.6447 17.951C19.3154 18.1663 18.9987 18.3753 18.6947 18.578C18.4034 18.768 18.1627 19.015 17.9727 19.319C17.7827 19.6103 17.6877 20.0093 17.6877 20.516H16.2627ZM17.0037 25.266C16.4844 25.266 16.1234 25.1773 15.9207 25C15.7307 24.81 15.6357 24.468 15.6357 23.974C15.6357 23.4927 15.7307 23.1633 15.9207 22.986C16.1234 22.796 16.4844 22.701 17.0037 22.701C17.5357 22.701 17.8967 22.796 18.0867 22.986C18.2767 23.1633 18.3717 23.4927 18.3717 23.974C18.3717 24.468 18.2767 24.81 18.0867 25C17.8967 25.1773 17.5357 25.266 17.0037 25.266Z" fill="black"/>
<path d="M16.2627 20.516H15.7627V21.016H16.2627V20.516ZM16.5477 18.844L17.0005 19.0562L17.0029 19.0509L16.5477 18.844ZM17.2697 17.856L16.9593 17.4639L16.9513 17.4705L17.2697 17.856ZM18.2197 17.21L18.4696 17.6431L18.4746 17.6401L18.2197 17.21ZM19.1697 16.507L19.5068 16.8762L19.5076 16.8756L19.1697 16.507ZM19.9107 15.386L19.4473 15.1981H19.4473L19.9107 15.386ZM19.9107 11.871L20.3579 11.6474L19.9107 11.871ZM18.9227 11.073L18.7646 11.5474L18.7685 11.5486L18.9227 11.073ZM15.0277 11.092L14.862 10.6203L14.8579 10.6217L15.0277 11.092ZM14.0777 11.966L14.5358 12.1664L14.538 12.1613L14.0777 11.966ZM13.8307 13.695V14.195H14.3393L14.3306 13.6865L13.8307 13.695ZM12.4057 13.695L11.9059 13.707L11.9176 14.195H12.4057V13.695ZM12.7857 11.225L13.2386 11.437L13.2402 11.4333L12.7857 11.225ZM14.2107 9.933L14.3872 10.4008L14.3919 10.399L14.2107 9.933ZM19.7397 9.914L19.5632 10.3819L19.571 10.3847L19.7397 9.914ZM21.1837 11.13L20.7385 11.3576L21.1837 11.13ZM21.3357 15.728L21.8101 15.8861L21.8111 15.883L21.3357 15.728ZM20.5947 17.096L20.2209 16.7637L20.2141 16.7718L20.5947 17.096ZM19.6447 17.951L19.9183 18.3695L19.9221 18.367L19.6447 17.951ZM18.6947 18.578L18.9679 18.9968L18.9721 18.994L18.6947 18.578ZM17.9727 19.319L18.3916 19.5922L18.3967 19.584L17.9727 19.319ZM17.6877 20.516V21.016H18.1877V20.516H17.6877ZM15.9207 25L15.5672 25.3536L15.5789 25.3653L15.5915 25.3763L15.9207 25ZM15.9207 22.986L16.2619 23.3515L16.2627 23.3508L15.9207 22.986ZM18.0867 22.986L17.7332 23.3396L17.7393 23.3456L17.7456 23.3515L18.0867 22.986ZM18.0867 25L18.4279 25.3655L18.4342 25.3596L18.4403 25.3536L18.0867 25ZM16.7627 20.516C16.7627 19.8418 16.8545 19.3675 17.0004 19.0562L16.095 18.6318C15.8609 19.1311 15.7627 19.7716 15.7627 20.516H16.7627ZM17.0029 19.0509C17.1681 18.6874 17.3666 18.4245 17.5882 18.2415L16.9513 17.4705C16.5901 17.7688 16.3073 18.1646 16.0925 18.6371L17.0029 19.0509ZM17.5801 18.248C17.8653 18.0222 18.1618 17.8207 18.4696 17.6431L17.9698 16.7769C17.619 16.9793 17.2821 17.2085 16.9594 17.464L17.5801 18.248ZM18.4746 17.6401C18.8458 17.4202 19.1901 17.1655 19.5068 16.8762L18.8326 16.1378C18.5667 16.3805 18.2776 16.5945 17.9648 16.7799L18.4746 17.6401ZM19.5076 16.8756C19.8773 16.5367 20.1624 16.0961 20.3741 15.5739L19.4473 15.1981C19.2791 15.6133 19.0702 15.92 18.8318 16.1384L19.5076 16.8756ZM20.3741 15.5739C20.5985 15.0204 20.6957 14.3079 20.6957 13.467H19.6957C19.6957 14.2475 19.603 14.8143 19.4473 15.1981L20.3741 15.5739ZM20.6957 13.467C20.6957 12.7475 20.5975 12.1266 20.3579 11.6474L19.4635 12.0946C19.6039 12.3754 19.6957 12.8185 19.6957 13.467H20.6957ZM20.3579 11.6474C20.0984 11.1282 19.651 10.7836 19.077 10.5974L18.7685 11.5486C19.1317 11.6664 19.3431 11.8538 19.4635 12.0946L20.3579 11.6474ZM19.0808 10.5987C18.5496 10.4216 17.8409 10.345 16.9847 10.345V11.345C17.8005 11.345 18.3838 11.4204 18.7646 11.5473L19.0808 10.5987ZM16.9847 10.345C16.1253 10.345 15.408 10.4284 14.862 10.6203L15.1935 11.5637C15.5847 11.4263 16.1721 11.345 16.9847 11.345V10.345ZM14.8579 10.6217C14.281 10.8301 13.8531 11.2152 13.6174 11.7707L14.538 12.1613C14.657 11.8808 14.8625 11.6833 15.1975 11.5623L14.8579 10.6217ZM13.6196 11.7656C13.4002 12.2672 13.3176 12.9273 13.3308 13.7035L14.3306 13.6865C14.3185 12.9681 14.4006 12.4755 14.5358 12.1664L13.6196 11.7656ZM13.8307 13.195H12.4057V14.195H13.8307V13.195ZM12.9056 13.683C12.8811 12.6676 13.0066 11.9325 13.2386 11.437L12.3329 11.013C12.0075 11.7081 11.8797 12.6198 11.9059 13.707L12.9056 13.683ZM13.2402 11.4333C13.4598 10.9544 13.8292 10.6114 14.3872 10.4008L14.0342 9.4652C13.2495 9.76129 12.669 10.2796 12.3312 11.0167L13.2402 11.4333ZM14.3919 10.399C14.9943 10.1648 15.8492 10.034 16.9847 10.034V9.034C15.7895 9.034 14.7951 9.16925 14.0295 9.467L14.3919 10.399ZM16.9847 10.034C18.1226 10.034 18.9725 10.1589 19.5632 10.3818L19.9162 9.4462C19.1643 9.16244 18.1775 9.034 16.9847 9.034V10.034ZM19.571 10.3847C20.1374 10.5877 20.5118 10.9141 20.7385 11.3576L21.6289 10.9024C21.2729 10.2059 20.6847 9.72161 19.9084 9.44333L19.571 10.3847ZM20.7385 11.3576C20.9795 11.8291 21.1207 12.5191 21.1207 13.467H22.1207C22.1207 12.4389 21.9706 11.5709 21.6289 10.9024L20.7385 11.3576ZM21.1207 13.467C21.1207 14.363 21.028 15.059 20.8603 15.573L21.8111 15.883C22.0235 15.2317 22.1207 14.4204 22.1207 13.467H21.1207ZM20.8614 15.5699C20.6864 16.0948 20.4683 16.4856 20.221 16.7638L20.9684 17.4282C21.3291 17.0224 21.605 16.5012 21.8101 15.8861L20.8614 15.5699ZM20.2141 16.7718C19.95 17.0818 19.6675 17.3349 19.3674 17.535L19.9221 18.367C20.306 18.1111 20.6568 17.7942 20.9753 17.4202L20.2141 16.7718ZM19.3711 17.5325C19.0406 17.7486 18.7227 17.9584 18.4174 18.162L18.9721 18.994C19.2747 18.7922 19.5902 18.5841 19.9183 18.3695L19.3711 17.5325ZM18.4216 18.1592C18.0675 18.3901 17.776 18.6903 17.5487 19.054L18.3967 19.584C18.5494 19.3397 18.7393 19.1459 18.9678 18.9968L18.4216 18.1592ZM17.5539 19.0459C17.2919 19.4476 17.1877 19.9543 17.1877 20.516H18.1877C18.1877 20.0644 18.2735 19.7731 18.3915 19.5921L17.5539 19.0459ZM17.6877 20.016H16.2627V21.016H17.6877V20.016ZM17.0037 24.766C16.5079 24.766 16.3081 24.6746 16.25 24.6237L15.5915 25.3763C15.9387 25.6801 16.4608 25.766 17.0037 25.766V24.766ZM16.2743 24.6464C16.2309 24.6031 16.1357 24.4359 16.1357 23.974H15.1357C15.1357 24.5001 15.2305 25.0169 15.5672 25.3536L16.2743 24.6464ZM16.1357 23.974C16.1357 23.5238 16.2314 23.3799 16.2619 23.3515L15.5796 22.6205C15.23 22.9467 15.1357 23.4616 15.1357 23.974H16.1357ZM16.2627 23.3508C16.3198 23.2972 16.5132 23.201 17.0037 23.201V22.201C16.4555 22.201 15.9269 22.2948 15.5787 22.6212L16.2627 23.3508ZM17.0037 23.201C17.5164 23.201 17.6945 23.3009 17.7332 23.3396L18.4403 22.6324C18.0989 22.2911 17.555 22.201 17.0037 22.201V23.201ZM17.7456 23.3515C17.776 23.3799 17.8717 23.5238 17.8717 23.974H18.8717C18.8717 23.4616 18.7774 22.9467 18.4279 22.6205L17.7456 23.3515ZM17.8717 23.974C17.8717 24.4359 17.7765 24.6031 17.7332 24.6464L18.4403 25.3536C18.7769 25.0169 18.8717 24.5001 18.8717 23.974H17.8717ZM17.7456 24.6345C17.7064 24.671 17.5217 24.766 17.0037 24.766V25.766C17.5497 25.766 18.087 25.6837 18.4279 25.3655L17.7456 24.6345Z" fill="black" mask="url(#path-2-outside-1_126_44)"/>
</svg>
