<svg width="24" height="25" viewBox="0 0 24 25" fill="none" xmlns="http://www.w3.org/2000/svg">
<path fill-rule="evenodd" clip-rule="evenodd" d="M14.0488 2.65055C13.5263 0.5007 10.4737 0.5007 9.95119 2.65055C9.87318 2.9736 9.72016 3.27363 9.5046 3.52621C9.28904 3.7788 9.01702 3.97681 8.71068 4.10414C8.40434 4.23146 8.07234 4.28449 7.74168 4.25893C7.41103 4.23336 7.09107 4.12991 6.80784 3.957C4.92128 2.8049 2.76246 4.96853 3.912 6.85929C4.65452 8.0803 3.99587 9.67339 2.60983 10.011C0.46339 10.5333 0.46339 13.5941 2.60983 14.115C2.93225 14.1933 3.23166 14.3468 3.48369 14.563C3.73571 14.7792 3.93323 15.052 4.06014 15.3592C4.18706 15.6664 4.2398 15.9993 4.21405 16.3308C4.18831 16.6623 4.08481 16.983 3.912 17.2668C2.76246 19.1575 4.92128 21.3212 6.80784 20.1691C7.09101 19.9959 7.411 19.8921 7.74175 19.8663C8.07249 19.8405 8.40464 19.8934 8.71114 20.0206C9.01765 20.1478 9.28985 20.3457 9.50557 20.5983C9.7213 20.8509 9.87445 21.151 9.95256 21.4741C10.4737 23.6254 13.5277 23.6254 14.0474 21.4741C14.1258 21.1512 14.2791 20.8513 14.4949 20.5989C14.7107 20.3465 14.9828 20.1486 15.2892 20.0215C15.5956 19.8943 15.9277 19.8414 16.2583 19.867C16.589 19.8927 16.9089 19.9962 17.1922 20.1691C19.0787 21.3212 21.2375 19.1575 20.088 17.2668C19.9155 16.9829 19.8122 16.6622 19.7867 16.3308C19.7611 15.9994 19.8139 15.6667 19.9407 15.3596C20.0676 15.0525 20.265 14.7797 20.5169 14.5635C20.7687 14.3472 21.0679 14.1936 21.3902 14.115C23.5366 13.5927 23.5366 10.532 21.3902 10.011C21.0678 9.93274 20.7683 9.77925 20.5163 9.56304C20.2643 9.34684 20.0668 9.07403 19.9399 8.76684C19.8129 8.45965 19.7602 8.12676 19.7859 7.79528C19.8117 7.4638 19.9152 7.1431 20.088 6.85929C21.2375 4.96853 19.0787 2.8049 17.1922 3.957C16.909 4.1302 16.589 4.23392 16.2583 4.25972C15.9275 4.28553 15.5954 4.23267 15.2889 4.10547C14.9824 3.97827 14.7102 3.78032 14.4944 3.52773C14.2787 3.27514 14.1255 2.97506 14.0474 2.65193L14.0488 2.65055Z" stroke="black" stroke-width="2"/>
<path d="M14.4444 12.0629C14.4444 13.4159 13.35 14.5128 12 14.5128C10.65 14.5128 9.55556 13.4159 9.55556 12.0629C9.55556 10.7098 10.65 9.61293 12 9.61293C13.35 9.61293 14.4444 10.7098 14.4444 12.0629Z" stroke="black" stroke-width="2"/>
</svg>
