<svg width="18" height="22" viewBox="0 0 18 22" fill="none" xmlns="http://www.w3.org/2000/svg">
<path d="M5.49451 16.7H5.50349M12.4945 16.7H12.5035M6.5 4H11.5M13.9 21H4.10001C2.40001 21 1 19.61 1 17.9V4.10001C1 2.40001 2.39001 1 4.10001 1H13.9C15.6 1 17 2.39001 17 4.10001V17.9C17 19.61 15.61 21 13.9 21ZM15.5 12H2.5C1.67 12 1 11.33 1 10.5V8.5C1 7.67 1.67 7 2.5 7H15.5C16.33 7 17 7.67 17 8.5V10.5C17 11.33 16.33 12 15.5 12Z" stroke="#454545" stroke-width="1.5" stroke-linecap="round" stroke-linejoin="round"/>
</svg>
