<svg width="32" height="28" viewBox="0 0 32 28" fill="none" xmlns="http://www.w3.org/2000/svg">
<rect x="3.58521" y="5" width="4.72777" height="10" fill="#8ACE00"/>
<path d="M2.53836 16.912C2.21836 16.912 2.04769 16.8587 2.02636 16.752C2.00502 16.6453 1.99436 16.464 1.99436 16.208L1.99436 4.20801C1.99436 4.14401 1.99436 4.02668 1.99436 3.85601C2.01569 3.68534 2.14369 3.60001 2.37836 3.60001L5.35436 3.60001C6.69836 3.60001 7.80769 3.82401 8.68236 4.27201C9.55702 4.69868 10.197 5.38134 10.6024 6.32001C11.029 7.23734 11.2424 8.44268 11.2424 9.93601C11.2424 11.2587 11.0824 12.368 10.7624 13.264C10.4637 14.1387 10.037 14.8427 9.48236 15.376C8.94902 15.9093 8.33036 16.304 7.62636 16.56C6.92236 16.7947 6.17569 16.912 5.38636 16.912H2.53836ZM1.64236 26L1.64236 4.11201C1.64236 3.94134 1.67436 3.81334 1.73836 3.72801C1.82369 3.64268 1.97302 3.60001 2.18636 3.60001H3.72236C3.97836 3.60001 4.12769 3.68534 4.17036 3.85601C4.21302 4.02668 4.23436 4.11201 4.23436 4.11201L4.23436 25.488C4.23436 25.6587 4.19169 25.776 4.10636 25.84C4.04236 25.904 3.82902 25.9467 3.46636 25.968C3.12502 25.9893 2.51702 26 1.64236 26ZM4.17036 14.512H5.64236C6.23969 14.512 6.73036 14.352 7.11436 14.032C7.51969 13.712 7.82902 13.2 8.04236 12.496C8.25569 11.7707 8.36236 10.8107 8.36236 9.61601C8.36236 8.86934 8.28769 8.21868 8.13836 7.66401C7.98902 7.08801 7.72236 6.65068 7.33836 6.35201C6.97569 6.03201 6.47436 5.87201 5.83436 5.87201H4.17036V14.512Z" fill="black"/>
<rect x="28.084" y="25" width="4.72777" height="10" transform="rotate(180 28.084 25)" fill="#C00F0F"/>
<path d="M29.1306 13.088C29.4506 13.088 29.6213 13.1413 29.6426 13.248C29.6639 13.3547 29.6746 13.536 29.6746 13.792V25.792C29.6746 25.856 29.6746 25.9733 29.6746 26.144C29.6533 26.3147 29.5253 26.4 29.2906 26.4H26.3146C24.9706 26.4 23.8613 26.176 22.9866 25.728C22.1119 25.3013 21.4719 24.6187 21.0666 23.68C20.6399 22.7627 20.4266 21.5573 20.4266 20.064C20.4266 18.7413 20.5866 17.632 20.9066 16.736C21.2053 15.8613 21.6319 15.1573 22.1866 14.624C22.7199 14.0907 23.3386 13.696 24.0426 13.44C24.7466 13.2053 25.4933 13.088 26.2826 13.088H29.1306ZM30.0266 4.00001V25.888C30.0266 26.0587 29.9946 26.1867 29.9306 26.272C29.8453 26.3573 29.6959 26.4 29.4826 26.4H27.9466C27.6906 26.4 27.5413 26.3147 27.4986 26.144C27.4559 25.9733 27.4346 25.888 27.4346 25.888V4.51201C27.4346 4.34135 27.4773 4.22401 27.5626 4.16001C27.6266 4.09601 27.8399 4.05335 28.2026 4.03201C28.5439 4.01068 29.1519 4.00001 30.0266 4.00001ZM27.4986 15.488H26.0266C25.4293 15.488 24.9386 15.648 24.5546 15.968C24.1493 16.288 23.8399 16.8 23.6266 17.504C23.4133 18.2293 23.3066 19.1893 23.3066 20.384C23.3066 21.1307 23.3813 21.7813 23.5306 22.336C23.6799 22.912 23.9466 23.3493 24.3306 23.648C24.6933 23.968 25.1946 24.128 25.8346 24.128H27.4986V15.488Z" fill="black"/>
<path d="M15.3152 3.68C13.8432 3.68 12.7659 3.88267 12.0832 4.288C11.4219 4.71467 11.0912 5.152 11.0912 5.6C11.0912 5.856 11.1445 6.15467 11.2512 6.496C11.3579 6.85867 11.5285 7.17867 11.7632 7.456C12.1045 7.136 12.5419 6.86933 13.0752 6.656C13.6299 6.44267 14.2912 6.336 15.0592 6.336C16.1899 6.336 16.9899 6.63467 17.4592 7.232C17.9499 7.82933 18.1952 8.61867 18.1952 9.6C18.1952 10.3253 18.0565 10.9973 17.7792 11.616C17.5232 12.2347 17.0432 12.9493 16.3392 13.76L13.1392 17.504C12.4139 18.4 11.8912 19.2 11.5712 19.904C11.2725 20.6293 11.1232 21.376 11.1232 22.144C11.1232 23.488 11.5925 24.5867 12.5312 25.44C13.4912 26.2933 14.8565 26.72 16.6272 26.72C18.1419 26.72 19.2192 26.56 19.8592 26.24C20.4992 25.9413 20.8192 25.568 20.8192 25.12C20.8192 24.9067 20.7659 24.6613 20.6592 24.384C20.5525 24.128 20.3925 23.8827 20.1792 23.648C19.9659 23.7973 19.5712 23.9573 18.9952 24.128C18.4405 24.32 17.7899 24.416 17.0432 24.416C16.0832 24.416 15.3152 24.224 14.7392 23.84C14.1845 23.456 13.9072 22.912 13.9072 22.208C13.9072 21.632 14.0352 21.0987 14.2912 20.608C14.5685 20.1387 14.9419 19.616 15.4112 19.04L18.8672 15.104C19.6992 14.1227 20.2645 13.2267 20.5632 12.416C20.8619 11.6053 21.0112 10.6987 21.0112 9.696C21.0112 8.62933 20.8299 7.63733 20.4672 6.72C20.1259 5.80267 19.5392 5.06667 18.7072 4.512C17.8965 3.95733 16.7659 3.68 15.3152 3.68Z" fill="black"/>
</svg>
