<svg width="170" height="80" viewBox="0 0 170 80" fill="none" xmlns="http://www.w3.org/2000/svg">
<rect width="170" height="80" rx="6" fill="#5757EE"/>
<mask id="path-2-outside-1_208_17" maskUnits="userSpaceOnUse" x="57" y="5" width="57" height="45" fill="black">
<rect fill="white" x="57" y="5" width="57" height="45"/>
<path fill-rule="evenodd" clip-rule="evenodd" d="M72.9697 6C76.1852 6 78.961 7.88282 80.2547 10.6061H101.971C104.8 10.6061 107.192 11.5752 109.148 13.5134C111.13 15.4778 112.122 17.8612 112.122 20.6637C112.122 23.44 111.13 25.8103 109.148 27.7747C107.192 29.739 104.8 30.7212 101.971 30.7212C97.5571 30.7212 91.9136 30.695 85.041 30.6426C78.1684 30.6164 72.5382 30.6033 68.1503 30.6033C67.2516 30.6033 66.4586 30.9438 65.7713 31.6248C65.1105 32.332 64.7801 33.1439 64.7801 34.0606C64.7801 35.0035 65.0973 35.8023 65.7317 36.4571C66.3925 37.1119 67.1987 37.4393 68.1503 37.4393L96.6205 37.4394C97.8367 34.5297 100.71 32.4851 104.061 32.4851C108.513 32.4851 112.121 36.094 112.121 40.5458C112.121 44.9975 108.513 48.6064 104.061 48.6064C100.845 48.6064 98.0696 46.7236 96.7759 44.0004L68.1503 44.0003C65.322 44.0003 62.9165 43.0312 60.9341 41.093C58.978 39.181 58 36.8369 58 34.0606C58 31.2581 58.9912 28.8747 60.9737 26.9103C62.9562 24.9722 65.6061 24.5205 68.408 24.5205H101.971C102.881 24.5205 103.658 23.7483 104.302 23.1083L104.39 23.0209C105.051 22.3923 105.381 21.6066 105.381 20.6637C105.381 19.7208 105.051 18.9219 104.39 18.2671C103.729 17.6386 102.923 17.3243 101.971 17.3243H80.3424C79.0896 20.1501 76.2599 22.1213 72.9697 22.1213C68.5179 22.1213 64.909 18.5125 64.909 14.0607C64.909 9.60889 68.5179 6 72.9697 6Z"/>
</mask>
<path fill-rule="evenodd" clip-rule="evenodd" d="M72.9697 6C76.1852 6 78.961 7.88282 80.2547 10.6061H101.971C104.8 10.6061 107.192 11.5752 109.148 13.5134C111.13 15.4778 112.122 17.8612 112.122 20.6637C112.122 23.44 111.13 25.8103 109.148 27.7747C107.192 29.739 104.8 30.7212 101.971 30.7212C97.5571 30.7212 91.9136 30.695 85.041 30.6426C78.1684 30.6164 72.5382 30.6033 68.1503 30.6033C67.2516 30.6033 66.4586 30.9438 65.7713 31.6248C65.1105 32.332 64.7801 33.1439 64.7801 34.0606C64.7801 35.0035 65.0973 35.8023 65.7317 36.4571C66.3925 37.1119 67.1987 37.4393 68.1503 37.4393L96.6205 37.4394C97.8367 34.5297 100.71 32.4851 104.061 32.4851C108.513 32.4851 112.121 36.094 112.121 40.5458C112.121 44.9975 108.513 48.6064 104.061 48.6064C100.845 48.6064 98.0696 46.7236 96.7759 44.0004L68.1503 44.0003C65.322 44.0003 62.9165 43.0312 60.9341 41.093C58.978 39.181 58 36.8369 58 34.0606C58 31.2581 58.9912 28.8747 60.9737 26.9103C62.9562 24.9722 65.6061 24.5205 68.408 24.5205H101.971C102.881 24.5205 103.658 23.7483 104.302 23.1083L104.39 23.0209C105.051 22.3923 105.381 21.6066 105.381 20.6637C105.381 19.7208 105.051 18.9219 104.39 18.2671C103.729 17.6386 102.923 17.3243 101.971 17.3243H80.3424C79.0896 20.1501 76.2599 22.1213 72.9697 22.1213C68.5179 22.1213 64.909 18.5125 64.909 14.0607C64.909 9.60889 68.5179 6 72.9697 6Z" fill="black"/>
<path d="M80.2547 10.6061V11.6061H79.6226L79.3514 11.0352L80.2547 10.6061ZM109.148 13.5134L109.852 12.803V12.803L109.148 13.5134ZM109.148 27.7747L108.439 27.069L108.444 27.0643L109.148 27.7747ZM85.041 30.6426L85.0448 29.6426L85.0486 29.6426L85.041 30.6426ZM65.7713 31.6248L65.0407 30.942L65.0538 30.928L65.0675 30.9145L65.7713 31.6248ZM65.7317 36.4571L65.0278 37.1675L65.0206 37.1603L65.0135 37.153L65.7317 36.4571ZM68.1503 37.4393V36.4393H68.1503L68.1503 37.4393ZM96.6205 37.4394L97.5431 37.825L97.2863 38.4394L96.6205 38.4394L96.6205 37.4394ZM96.7759 44.0004L96.7759 43.0004L97.4079 43.0004L97.6791 43.5713L96.7759 44.0004ZM68.1503 44.0003V43.0003H68.1503L68.1503 44.0003ZM60.9341 41.093L61.6331 40.3779L61.6331 40.378L60.9341 41.093ZM60.9737 26.9103L60.2698 26.2L60.2746 26.1953L60.9737 26.9103ZM104.302 23.1083L103.597 22.399L103.597 22.3986L104.302 23.1083ZM104.39 23.0209L103.685 22.3113L103.693 22.3037L103.701 22.2963L104.39 23.0209ZM104.39 18.2671L105.079 17.5426L105.087 17.5496L105.094 17.5568L104.39 18.2671ZM80.3424 17.3243L79.4282 16.919L79.6918 16.3243H80.3424V17.3243ZM79.3514 11.0352C78.2171 8.64744 75.7848 7 72.9697 7V5C76.5857 5 79.7049 7.1182 81.158 10.177L79.3514 11.0352ZM101.971 11.6061H80.2547V9.60614H101.971V11.6061ZM108.444 14.2237C106.681 12.4767 104.544 11.6061 101.971 11.6061V9.60614C105.055 9.60614 107.703 10.6738 109.852 12.803L108.444 14.2237ZM111.122 20.6637C111.122 18.1267 110.236 15.9994 108.444 14.2237L109.852 12.803C112.025 14.9561 113.122 17.5956 113.122 20.6637H111.122ZM108.444 27.0643C110.238 25.2866 111.122 23.1716 111.122 20.6637H113.122C113.122 23.7083 112.023 26.334 109.852 28.485L108.444 27.0643ZM101.971 29.7212C104.54 29.7212 106.675 28.8407 108.439 27.069L109.857 28.4803C107.709 30.6373 105.06 31.7212 101.971 31.7212V29.7212ZM85.0486 29.6426C91.9199 29.695 97.5606 29.7212 101.971 29.7212V31.7212C97.5535 31.7212 91.9073 31.695 85.0334 31.6426L85.0486 29.6426ZM68.1503 29.6033C72.5399 29.6033 78.1716 29.6164 85.0448 29.6426L85.0372 31.6426C78.1653 31.6164 72.5364 31.6033 68.1503 31.6033V29.6033ZM65.0675 30.9145C65.9262 30.0636 66.9665 29.6033 68.1503 29.6033V31.6033C67.5367 31.6033 66.991 31.824 66.4752 32.3351L65.0675 30.9145ZM63.7801 34.0606C63.7801 32.8753 64.2174 31.8231 65.0407 30.942L66.502 32.3076C66.0036 32.8409 65.7801 33.4125 65.7801 34.0606H63.7801ZM65.0135 37.153C64.1916 36.3046 63.7801 35.2534 63.7801 34.0606H65.7801C65.7801 34.7536 66.003 35.3 66.4499 35.7613L65.0135 37.153ZM68.1503 38.4393C66.9418 38.4393 65.8806 38.0125 65.0278 37.1675L66.4355 35.7468C66.9043 36.2113 67.4556 36.4393 68.1503 36.4393V38.4393ZM96.6205 38.4394L68.1503 38.4393L68.1503 36.4393L96.6205 36.4394L96.6205 38.4394ZM104.061 33.4851C101.127 33.4851 98.6093 35.2744 97.5431 37.825L95.6978 37.0537C97.0641 33.785 100.293 31.4851 104.061 31.4851V33.4851ZM111.121 40.5458C111.121 36.6463 107.96 33.4851 104.061 33.4851V31.4851C109.065 31.4851 113.121 35.5417 113.121 40.5458H111.121ZM104.061 47.6064C107.96 47.6064 111.121 44.4453 111.121 40.5458H113.121C113.121 45.5498 109.065 49.6064 104.061 49.6064V47.6064ZM97.6791 43.5713C98.8134 45.959 101.246 47.6064 104.061 47.6064V49.6064C100.445 49.6064 97.3257 47.4883 95.8726 44.4295L97.6791 43.5713ZM68.1503 43.0003L96.7759 43.0004L96.7759 45.0004L68.1503 45.0003L68.1503 43.0003ZM61.6331 40.378C63.4246 42.1294 65.5774 43.0003 68.1503 43.0003V45.0003C65.0665 45.0003 62.4085 43.933 60.235 41.8081L61.6331 40.378ZM59 34.0606C59 36.5723 59.8727 38.6572 61.6331 40.3779L60.2351 41.8081C58.0833 39.7048 57 37.1015 57 34.0606H59ZM61.6776 27.6207C59.8855 29.3964 59 31.5237 59 34.0606H57C57 30.9926 58.097 28.353 60.2699 26.2L61.6776 27.6207ZM68.408 25.5205C65.6837 25.5205 63.3689 25.9672 61.6728 27.6254L60.2746 26.1953C62.5435 23.9771 65.5286 23.5205 68.408 23.5205V25.5205ZM101.971 25.5205H68.408V23.5205H101.971V25.5205ZM105.007 23.8175C104.696 24.1264 104.281 24.5421 103.811 24.8725C103.338 25.2051 102.715 25.5205 101.971 25.5205V23.5205C102.138 23.5205 102.358 23.4497 102.661 23.2363C102.968 23.0206 103.264 22.7302 103.597 22.399L105.007 23.8175ZM105.095 23.7305L105.007 23.8179L103.597 22.3986L103.685 22.3113L105.095 23.7305ZM106.381 20.6637C106.381 21.87 105.946 22.921 105.079 23.7455L103.701 22.2963C104.156 21.8636 104.381 21.3431 104.381 20.6637H106.381ZM105.094 17.5568C105.947 18.4022 106.381 19.458 106.381 20.6637H104.381C104.381 19.9835 104.155 19.4416 103.686 18.9775L105.094 17.5568ZM101.971 16.3243C103.167 16.3243 104.224 16.7289 105.079 17.5426L103.701 18.9917C103.235 18.5482 102.679 18.3243 101.971 18.3243V16.3243ZM80.3424 16.3243H101.971V18.3243H80.3424V16.3243ZM72.9697 21.1213C75.8501 21.1213 78.3299 19.3964 79.4282 16.919L81.2566 17.7295C79.8493 20.9038 76.6696 23.1213 72.9697 23.1213V21.1213ZM65.909 14.0607C65.909 17.9602 69.0702 21.1213 72.9697 21.1213V23.1213C67.9656 23.1213 63.909 19.0647 63.909 14.0607H65.909ZM72.9697 7C69.0702 7 65.909 10.1612 65.909 14.0607H63.909C63.909 9.0566 67.9656 5 72.9697 5V7Z" fill="white" fill-opacity="0.1" mask="url(#path-2-outside-1_208_17)"/>
<path d="M39.888 69L34.248 53.976H34.152C34.2 54.472 34.24 55.144 34.272 55.992C34.304 56.824 34.32 57.696 34.32 58.608V69H32.328V51.864H35.52L40.8 65.904H40.896L46.272 51.864H49.44V69H47.304V58.464C47.304 57.632 47.32 56.808 47.352 55.992C47.4 55.176 47.44 54.512 47.472 54H47.376L41.664 69H39.888ZM58.6854 55.92C60.2534 55.92 61.4134 56.264 62.1654 56.952C62.9174 57.64 63.2934 58.736 63.2934 60.24V69H61.7574L61.3494 67.176H61.2534C60.6934 67.88 60.1014 68.4 59.4774 68.736C58.8534 69.072 58.0054 69.24 56.9334 69.24C55.7654 69.24 54.7974 68.936 54.0294 68.328C53.2614 67.704 52.8774 66.736 52.8774 65.424C52.8774 64.144 53.3814 63.16 54.3894 62.472C55.3974 61.768 56.9494 61.384 59.0454 61.32L61.2294 61.248V60.48C61.2294 59.408 60.9974 58.664 60.5334 58.248C60.0694 57.832 59.4134 57.624 58.5654 57.624C57.8934 57.624 57.2534 57.728 56.6454 57.936C56.0374 58.128 55.4694 58.352 54.9414 58.608L54.2934 57.024C54.8534 56.72 55.5174 56.464 56.2854 56.256C57.0534 56.032 57.8534 55.92 58.6854 55.92ZM61.2054 62.712L59.3094 62.784C57.7094 62.848 56.5974 63.104 55.9734 63.552C55.3654 64 55.0614 64.632 55.0614 65.448C55.0614 66.168 55.2774 66.696 55.7094 67.032C56.1574 67.368 56.7254 67.536 57.4134 67.536C58.4854 67.536 59.3814 67.24 60.1014 66.648C60.8374 66.04 61.2054 65.112 61.2054 63.864V62.712ZM73.3866 55.896C74.9706 55.896 76.2426 56.448 77.2026 57.552C78.1786 58.656 78.6666 60.32 78.6666 62.544C78.6666 64.736 78.1786 66.4 77.2026 67.536C76.2426 68.672 74.9626 69.24 73.3626 69.24C72.3706 69.24 71.5466 69.056 70.8906 68.688C70.2506 68.32 69.7466 67.88 69.3786 67.368H69.2346C69.2506 67.64 69.2746 67.984 69.3066 68.4C69.3546 68.816 69.3786 69.176 69.3786 69.48V74.76H67.2666V56.136H68.9946L69.2826 57.888H69.3786C69.7626 57.328 70.2666 56.856 70.8906 56.472C71.5146 56.088 72.3466 55.896 73.3866 55.896ZM73.0026 57.672C71.6906 57.672 70.7626 58.04 70.2186 58.776C69.6746 59.512 69.3946 60.632 69.3786 62.136V62.544C69.3786 64.128 69.6346 65.352 70.1466 66.216C70.6746 67.064 71.6426 67.488 73.0506 67.488C73.8186 67.488 74.4586 67.28 74.9706 66.864C75.4826 66.432 75.8586 65.84 76.0986 65.088C76.3546 64.336 76.4826 63.48 76.4826 62.52C76.4826 61.048 76.1946 59.872 75.6186 58.992C75.0586 58.112 74.1866 57.672 73.0026 57.672ZM99.4802 56.136V69H82.0322V56.136H84.1442V67.224H89.6882V56.136H91.8002V67.224H97.3682V56.136H99.4802ZM109.715 55.896C111.299 55.896 112.571 56.448 113.531 57.552C114.507 58.656 114.995 60.32 114.995 62.544C114.995 64.736 114.507 66.4 113.531 67.536C112.571 68.672 111.291 69.24 109.691 69.24C108.699 69.24 107.875 69.056 107.219 68.688C106.579 68.32 106.075 67.88 105.707 67.368H105.563C105.579 67.64 105.603 67.984 105.635 68.4C105.683 68.816 105.707 69.176 105.707 69.48V74.76H103.595V56.136H105.323L105.611 57.888H105.707C106.091 57.328 106.595 56.856 107.219 56.472C107.843 56.088 108.675 55.896 109.715 55.896ZM109.331 57.672C108.019 57.672 107.091 58.04 106.547 58.776C106.003 59.512 105.723 60.632 105.707 62.136V62.544C105.707 64.128 105.963 65.352 106.475 66.216C107.003 67.064 107.971 67.488 109.379 67.488C110.147 67.488 110.787 67.28 111.299 66.864C111.811 66.432 112.187 65.84 112.427 65.088C112.683 64.336 112.811 63.48 112.811 62.52C112.811 61.048 112.523 59.872 111.947 58.992C111.387 58.112 110.515 57.672 109.331 57.672ZM116.11 56.136H118.366L121.15 63.456C121.39 64.112 121.606 64.728 121.798 65.304C121.99 65.88 122.134 66.432 122.23 66.96H122.326C122.422 66.56 122.574 66.04 122.782 65.4C122.99 64.744 123.206 64.088 123.43 63.432L126.046 56.136H128.326L122.782 70.776C122.318 71.992 121.734 72.96 121.03 73.68C120.326 74.4 119.35 74.76 118.102 74.76C117.718 74.76 117.382 74.736 117.094 74.688C116.806 74.656 116.558 74.616 116.35 74.568V72.888C116.526 72.92 116.734 72.952 116.974 72.984C117.23 73.016 117.494 73.032 117.766 73.032C118.502 73.032 119.094 72.824 119.542 72.408C119.99 71.992 120.35 71.44 120.622 70.752L121.294 69.048L116.11 56.136ZM139.24 57.912H135.04V69H132.952V57.912H128.8V56.136H139.24V57.912Z" fill="black"/>
</svg>
