<svg width="29" height="33" viewBox="0 0 29 33" fill="none" xmlns="http://www.w3.org/2000/svg">
<path fill-rule="evenodd" clip-rule="evenodd" d="M5.72282 0.642883H23.2768V2.64316H21.0464L19.6106 3.67105H26.2377C27.112 3.67105 27.8018 4.06535 28.215 4.55837C28.6249 5.04746 28.818 5.67638 28.818 6.37454V23.0295V29.8429C28.818 30.3167 28.7799 30.9276 28.4215 31.4317C28.22 31.715 27.9176 31.9672 27.4954 32.1375C27.0881 32.3019 26.6513 32.3572 26.2377 32.3572H2.97343C2.27874 32.3572 1.69056 32.1708 1.24357 31.8661C0.82397 31.58 0.58675 31.2305 0.449334 30.9494C0.309802 30.664 0.245748 30.3929 0.214786 30.2029C0.198881 30.1053 0.190667 30.0225 0.186389 29.9612C0.184239 29.9304 0.183055 29.9047 0.182407 29.8848L0.181781 29.8593L0.181669 29.85L0.181647 29.8462L0.181642 29.8445C0.181642 29.8441 0.181641 29.8429 1.49298 29.8429H0.181641V8.83494V6.37454C0.181645 5.81768 0.299176 5.16322 0.766411 4.61965C1.29372 4.00621 2.14731 3.67105 3.18492 3.67105H9.60048L8.16469 2.64316H5.72282V0.642883ZM11.9968 2.64316L13.4326 3.67105H15.7785L17.2143 2.64316H11.9968ZM2.80431 7.8348L26.1953 7.83482V6.37454C26.1953 5.99086 26.0998 5.77234 26.0318 5.67133H3.18492C3.04164 5.67133 2.98949 5.69189 2.98617 5.69319C2.98302 5.69443 2.9821 5.69502 2.98077 5.69596C2.97898 5.69722 2.97145 5.70275 2.95975 5.71635C2.89826 5.78788 2.80432 5.98509 2.80431 6.37455L2.80431 7.8348ZM26.1953 9.8351L15.9169 9.83508V22.0294H26.1953V9.8351ZM13.2942 22.0294V9.83508H2.80431V22.0294L13.2942 22.0294ZM2.80431 24.0297V29.8363C2.80443 29.8394 2.80471 29.8457 2.80535 29.8548C2.80685 29.8763 2.8102 29.9118 2.81743 29.9562C2.83273 30.0501 2.86121 30.1574 2.90673 30.2506C2.93364 30.3056 2.95823 30.3388 2.97395 30.3569H26.1535C26.1553 30.3489 26.1583 30.3404 26.16 30.3315C26.1829 30.2144 26.1953 30.0564 26.1953 29.8429V24.0297L2.80431 24.0297ZM4.24895 24.9831C4.67352 24.6032 5.24953 24.4898 5.72285 24.4898H10.5872C11.0605 24.4898 11.6365 24.6032 12.0611 24.9831C12.4515 25.3325 12.533 25.7499 12.533 26.0577V28.1396C12.533 28.4474 12.4515 28.8648 12.0611 29.2142C11.6365 29.5941 11.0605 29.7075 10.5872 29.7075H5.72285C5.24953 29.7075 4.67353 29.5941 4.24895 29.2142C3.85858 28.8648 3.77703 28.4474 3.77703 28.1396V26.0577C3.77703 25.7499 3.85858 25.3325 4.24895 24.9831ZM6.3997 26.4901V27.7072H9.91034V26.4901H6.3997ZM17.15 24.9831C17.5746 24.6032 18.1506 24.4898 18.6239 24.4898H23.4883C23.9616 24.4898 24.5376 24.6032 24.9622 24.9831C25.3526 25.3325 25.4341 25.7499 25.4341 26.0577V28.1396C25.4341 28.4474 25.3526 28.8648 24.9622 29.2142C24.5376 29.5941 23.9616 29.7075 23.4883 29.7075H18.6239C18.1506 29.7075 17.5746 29.5941 17.15 29.2142C16.7597 28.8648 16.6781 28.4474 16.6781 28.1396V26.0577C16.6781 25.7499 16.7597 25.3325 17.15 24.9831ZM19.3008 26.4901V27.7072H22.8114V26.4901H19.3008Z" fill="#FFFEFE"/>
</svg>
