<svg width="36" height="42" viewBox="0 0 36 42" fill="none" xmlns="http://www.w3.org/2000/svg">
<path d="M0 7C0 3.13401 3.33471 0 7.44828 0H28.5517C32.6653 0 36 3.13401 36 7V35C36 38.866 32.6653 42 28.5517 42H7.44828C3.33471 42 0 38.866 0 35V7Z" fill="#CE0000"/>
<path fill-rule="evenodd" clip-rule="evenodd" d="M8.97196 3H27.0275V5.27059H24.7334L23.2565 6.43738H30.073C30.9723 6.43738 31.6818 6.88496 32.1068 7.44461C32.5284 7.99979 32.727 8.7137 32.727 9.50621V28.4119V36.146C32.727 36.6839 32.6878 37.3772 32.3191 37.9494C32.1119 38.2711 31.8008 38.5573 31.3666 38.7507C30.9477 38.9373 30.4984 39 30.073 39H6.14402C5.42948 39 4.82449 38.7885 4.36473 38.4426C3.93314 38.1178 3.68915 37.7211 3.5478 37.402C3.40428 37.078 3.3384 36.7703 3.30655 36.5546C3.29019 36.4438 3.28175 36.3498 3.27734 36.2803C3.27513 36.2453 3.27392 36.2161 3.27325 36.1935L3.2726 36.1646L3.27249 36.154L3.27247 36.1497L3.27246 36.1478C3.27246 36.1473 3.27246 36.146 4.62126 36.146H3.27246V12.2991V9.5062C3.27246 8.8741 3.39335 8.13119 3.87394 7.51417C4.41631 6.81783 5.2943 6.43738 6.36155 6.43738H12.9604L11.4836 5.27059H8.97196V3ZM15.4252 5.27059L16.902 6.43738H19.3149L20.7917 5.27059H15.4252ZM5.97006 11.1638L30.0294 11.1638V9.50621C30.0294 9.07068 29.9311 8.82262 29.8612 8.70797H6.36155C6.21417 8.70797 6.16053 8.7313 6.15712 8.73279C6.15388 8.73419 6.15293 8.73486 6.15156 8.73593C6.14973 8.73735 6.14198 8.74363 6.12995 8.75907C6.0667 8.84027 5.97007 9.06413 5.97007 9.50621L5.97006 11.1638ZM30.0294 13.4344L19.4573 13.4344V27.2766H30.0294V13.4344ZM16.7597 27.2766V13.4344H5.97007V27.2766L16.7597 27.2766ZM5.97007 29.5472V36.1385C5.97018 36.142 5.97048 36.1491 5.97113 36.1595C5.97268 36.1839 5.97613 36.2242 5.98356 36.2745C5.9993 36.3811 6.02859 36.503 6.07541 36.6087C6.10309 36.6712 6.12838 36.7089 6.14455 36.7294H29.9864C29.9882 36.7203 29.9913 36.7108 29.9931 36.7006C30.0166 36.5676 30.0294 36.3883 30.0294 36.146V29.5472L5.97007 29.5472ZM7.45598 30.6295C7.89268 30.1982 8.48514 30.0695 8.97199 30.0695H13.9753C14.4622 30.0695 15.0546 30.1982 15.4913 30.6295C15.8928 31.026 15.9767 31.4999 15.9767 31.8493V34.2125C15.9767 34.5619 15.8928 35.0357 15.4913 35.4323C15.0546 35.8636 14.4622 35.9923 13.9753 35.9923H8.97199C8.48515 35.9923 7.89269 35.8636 7.45598 35.4323C7.05446 35.0357 6.97058 34.5619 6.97058 34.2125V31.8493C6.97058 31.4999 7.05446 31.026 7.45598 30.6295ZM9.66818 32.3401V33.7217H13.2791V32.3401H9.66818ZM20.7257 30.6295C21.1624 30.1982 21.7548 30.0695 22.2417 30.0695H27.245C27.7319 30.0695 28.3243 30.1982 28.761 30.6295C29.1625 31.026 29.2464 31.4999 29.2464 31.8493V34.2125C29.2464 34.5619 29.1625 35.0357 28.761 35.4323C28.3243 35.8636 27.7319 35.9923 27.245 35.9923H22.2417C21.7548 35.9923 21.1624 35.8636 20.7257 35.4323C20.3242 35.0357 20.2403 34.5619 20.2403 34.2125V31.8493C20.2403 31.4999 20.3242 31.026 20.7257 30.6295ZM22.9379 32.3401V33.7217H26.5488V32.3401H22.9379Z" fill="#FFFEFE"/>
</svg>
