<svg width="36" height="42" viewBox="0 0 36 42" fill="none" xmlns="http://www.w3.org/2000/svg">
<path d="M0 7C0 3.13401 3.33471 0 7.44828 0H28.5517C32.6653 0 36 3.13401 36 7V35C36 38.866 32.6653 42 28.5517 42H7.44828C3.33471 42 0 38.866 0 35V7Z" fill="#0073AC"/>
<path d="M18.1057 10.0371L30.6061 10.0371M18.1057 10.0371V27.2088M18.1057 10.0371H5.00003M31 27.2088C31 27.2088 31 34.3065 31 35.4513C31 36.5961 30.7886 37.2829 29.7317 37.2829C28.6748 37.2829 7.95937 37.2829 6.4797 37.2829C5.00003 37.2829 5.00003 35.4513 5.00003 35.4513V10.0371M31 27.2088V10.0371C31 10.0371 31 8.43436 31 7.06061C31 5.68687 30.3659 5 29.7317 5C29.0976 5 7.9594 5 6.69108 5C5.42277 5 5.00003 5.91583 5.00003 7.06061C5.00002 8.2054 5.00003 10.0371 5.00003 10.0371M31 27.2088H18.1057M18.1057 27.2088L5 27.2088M21.4878 30.8721C21.4878 31.3301 21.4878 32.9328 21.4878 33.3907C21.4878 33.8486 21.6992 34.0775 22.122 34.0775C22.5447 34.0775 26.561 34.0775 26.9837 34.0775C27.4065 34.0775 27.6179 33.8486 27.6179 33.3907C27.6179 32.9328 27.6179 31.3301 27.6179 30.8721C27.6179 30.4142 27.4065 30.1853 26.9837 30.1853C26.561 30.1853 22.5447 30.1853 22.122 30.1853C21.6992 30.1853 21.4878 30.4142 21.4878 30.8721ZM8.59352 30.8721V33.3907C8.59352 33.8486 8.8049 34.0775 9.22767 34.0775H14.0895C14.5122 34.0775 14.7236 33.8486 14.7236 33.3907V30.8721C14.7236 30.4142 14.5122 30.1853 14.0895 30.1853H9.22767C8.8049 30.1853 8.59352 30.4142 8.59352 30.8721Z" stroke="white" stroke-width="2"/>
<path d="M11.1024 37.4324C11.2239 37.4324 11.2338 38.648 11.1024 39.0534C10.9273 39.5939 10.1211 40 9.20195 40C8.15145 40 7.42569 39.5939 7.23589 39.0534C7.09355 38.648 7.02188 37.5821 7.23589 37.4324" stroke="white" stroke-width="2" stroke-linecap="round"/>
<path d="M29.2235 37.4324C29.345 37.4324 29.3549 38.648 29.2235 39.0534C29.0484 39.5939 28.2422 40 27.323 40C26.2725 40 25.5468 39.5939 25.357 39.0534C25.2146 38.648 25.143 37.5821 25.357 37.4324" stroke="white" stroke-width="2" stroke-linecap="round"/>
<path d="M15.9693 4L12.0361 2M12.0361 2L9 2M12.0361 2L24.1807 2M24.1807 2H27M24.1807 2L19.8762 4" stroke="white" stroke-width="2"/>
</svg>
