<svg width="34" height="34" viewBox="0 0 34 34" fill="none" xmlns="http://www.w3.org/2000/svg">
<path d="M30.8667 15.9333C30.8667 24.1808 24.1808 30.8667 15.9333 30.8667C7.68588 30.8667 1 24.1808 1 15.9333C1 7.68588 7.68588 1 15.9333 1C24.1808 1 30.8667 7.68588 30.8667 15.9333Z" fill="white"/>
<path d="M26.3845 26.6L33 33M10.1429 15.8571H21.5714M30.8667 15.9333C30.8667 24.1808 24.1808 30.8667 15.9333 30.8667C7.68588 30.8667 1 24.1808 1 15.9333C1 7.68588 7.68588 1 15.9333 1C24.1808 1 30.8667 7.68588 30.8667 15.9333Z" stroke="black" stroke-width="2" stroke-linecap="round"/>
</svg>
