<svg width="34" height="34" viewBox="0 0 34 34" fill="none" xmlns="http://www.w3.org/2000/svg">
<path d="M30.8667 15.9333C30.8667 24.1808 24.1808 30.8667 15.9333 30.8667C7.68588 30.8667 1 24.1808 1 15.9333C1 7.68588 7.68588 1 15.9333 1C24.1808 1 30.8667 7.68588 30.8667 15.9333Z" fill="white"/>
<path d="M27.0798 25.8813C26.6829 25.4973 26.0498 25.5078 25.6658 25.9047C25.2818 26.3016 25.2923 26.9347 25.6892 27.3187L27.0798 25.8813ZM32.3047 33.7187C32.7016 34.1027 33.3347 34.0922 33.7187 33.6953C34.1027 33.2984 34.0922 32.6653 33.6953 32.2813L32.3047 33.7187ZM14.8571 21.5714C14.8571 22.1237 15.3049 22.5714 15.8571 22.5714C16.4094 22.5714 16.8571 22.1237 16.8571 21.5714H14.8571ZM16.8571 10.1429C16.8571 9.59057 16.4094 9.14286 15.8571 9.14286C15.3049 9.14286 14.8571 9.59057 14.8571 10.1429H16.8571ZM10.1429 14.8571C9.59057 14.8571 9.14286 15.3049 9.14286 15.8571C9.14286 16.4094 9.59057 16.8571 10.1429 16.8571V14.8571ZM21.5714 16.8571C22.1237 16.8571 22.5714 16.4094 22.5714 15.8571C22.5714 15.3049 22.1237 14.8571 21.5714 14.8571V16.8571ZM29.8667 15.9333C29.8667 23.6285 23.6285 29.8667 15.9333 29.8667V31.8667C24.7331 31.8667 31.8667 24.7331 31.8667 15.9333H29.8667ZM15.9333 29.8667C8.23817 29.8667 2 23.6285 2 15.9333H0C0 24.7331 7.1336 31.8667 15.9333 31.8667V29.8667ZM2 15.9333C2 8.23817 8.23817 2 15.9333 2V0C7.1336 0 0 7.1336 0 15.9333H2ZM15.9333 2C23.6285 2 29.8667 8.23817 29.8667 15.9333H31.8667C31.8667 7.1336 24.7331 0 15.9333 0V2ZM25.6892 27.3187L32.3047 33.7187L33.6953 32.2813L27.0798 25.8813L25.6892 27.3187ZM16.8571 21.5714V15.8571H14.8571V21.5714H16.8571ZM16.8571 15.8571V10.1429H14.8571V15.8571H16.8571ZM10.1429 16.8571H15.8571V14.8571H10.1429V16.8571ZM15.8571 16.8571H21.5714V14.8571H15.8571V16.8571Z" fill="black"/>
</svg>
